<?xml version="1.0" standalone="no"?>
<!DOCTYPE svg PUBLIC "-//W3C//DTD SVG 20010904//EN"
 "http://www.w3.org/TR/2001/REC-SVG-20010904/DTD/svg10.dtd">
<svg version="1.0" xmlns="http://www.w3.org/2000/svg"
 width="392.000000pt" height="400.000000pt" viewBox="0 0 392.000000 400.000000"
 preserveAspectRatio="xMidYMid meet">

<g transform="translate(0.000000,400.000000) scale(0.100000,-0.100000)"
fill="#000000" stroke="none">
<path d="M1691 759 c-19 -4 -43 -18 -53 -31 -20 -26 -24 -83 -6 -94 8 -5 9 -2
5 10 -4 10 -3 15 4 11 5 -4 7 -14 4 -24 -4 -13 5 -22 31 -35 20 -9 39 -14 42
-11 9 8 42 -27 42 -45 0 -24 -21 -40 -53 -40 -19 0 -26 -4 -21 -12 4 -7 3 -8
-5 -4 -6 4 -9 11 -6 16 3 5 -6 12 -21 16 -24 6 -43 -6 -44 -27 0 -12 50 -28
67 -22 11 4 14 3 9 -5 -5 -8 2 -12 19 -12 50 0 102 40 105 81 6 64 2 69 -65
100 -62 28 -91 57 -81 82 2 7 5 3 5 -7 1 -18 2 -18 14 -4 13 18 81 28 94 14 5
-5 2 -6 -7 -1 -13 7 -13 6 -2 -6 11 -12 15 -11 28 5 8 11 11 23 7 27 -16 15
-79 25 -112 18z m2 -26 c-7 -2 -19 -2 -25 0 -7 3 -2 5 12 5 14 0 19 -2 13 -5z
m-18 -83 c3 -5 1 -10 -4 -10 -6 0 -11 5 -11 10 0 6 2 10 4 10 3 0 8 -4 11 -10z
m22 -34 c0 -8 -6 -12 -15 -9 -11 5 -11 7 0 14 7 5 13 9 14 9 0 0 1 -6 1 -14z
m76 -32 c-3 -7 -10 -11 -15 -8 -6 4 -5 10 3 15 10 6 11 9 2 9 -7 0 -13 5 -13
11 0 8 4 8 14 -1 8 -6 12 -18 9 -26z m27 -4 c0 -5 -5 -10 -11 -10 -5 0 -7 5
-4 10 3 6 8 10 11 10 2 0 4 -4 4 -10z m-24 -85 c-3 -9 -10 -13 -16 -10 -6 4
-5 11 3 20 15 16 22 11 13 -10z m-116 11 c0 -2 -7 -7 -16 -10 -8 -3 -12 -2 -9
4 6 10 25 14 25 6z"/>
<path d="M1870 611 c0 -139 2 -161 16 -161 9 0 12 5 8 13 -5 7 -1 7 10 -2 15
-13 19 -13 26 -1 5 8 7 17 5 21 -3 3 -5 61 -6 127 -1 99 -4 123 -17 135 -42
35 -42 35 -42 -132z m25 130 c3 -5 1 -12 -5 -16 -5 -3 -10 1 -10 9 0 18 6 21
15 7z m-8 -163 c-2 -13 -4 -3 -4 22 0 25 2 35 4 23 2 -13 2 -33 0 -45z"/>
<path d="M780 611 c0 -122 3 -150 15 -155 8 -3 19 2 24 12 9 15 11 15 30 -2
26 -24 67 -15 99 21 17 20 22 38 22 79 0 93 -65 130 -127 73 -16 -16 -26 -20
-34 -12 -8 8 -7 13 2 18 8 5 10 4 5 -3 -4 -7 -2 -12 3 -12 7 0 11 26 11 65 0
63 -1 65 -25 65 l-25 0 0 -149z m131 -2 c15 -29 5 -100 -18 -117 -10 -7 -17
-17 -16 -22 2 -5 -4 -7 -13 -3 -11 4 -12 8 -4 13 8 5 4 9 -9 13 -18 4 -21 13
-21 59 0 30 5 59 12 66 19 19 56 14 69 -9z m26 -31 c-3 -7 -5 -2 -5 12 0 14 2
19 5 13 2 -7 2 -19 0 -25z m13 -35 c-11 -17 -11 -17 -6 0 3 10 6 24 7 30 0 9
2 9 5 0 3 -7 0 -20 -6 -30z m-153 -15 c-3 -8 -6 -5 -6 6 -1 11 2 17 5 13 3 -3
4 -12 1 -19z m143 -18 c0 -5 -5 -10 -11 -10 -5 0 -7 5 -4 10 3 6 8 10 11 10 2
0 4 -4 4 -10z m-10 -24 c0 -3 -4 -8 -10 -11 -5 -3 -10 -1 -10 4 0 6 5 11 10
11 6 0 10 -2 10 -4z"/>
<path d="M1341 606 l-2 -156 38 0 c128 0 193 30 193 89 0 29 -24 70 -35 60 -3
-4 1 -14 10 -22 14 -14 13 -16 -4 -14 -11 0 -17 5 -15 9 3 4 0 16 -5 27 -9 15
-6 22 14 35 32 21 34 74 4 102 -17 15 -40 20 -109 22 l-88 4 -1 -156z m147
102 c5 -7 11 -27 14 -43 3 -23 0 -31 -12 -32 -8 0 -31 -3 -52 -6 l-36 -6 -4
45 c-2 25 -1 47 1 50 10 9 79 3 89 -8z m50 -6 c9 9 12 8 12 -7 0 -10 -3 -15
-7 -12 -3 4 -12 -1 -20 -11 -8 -9 -12 -11 -8 -5 3 7 1 23 -5 35 -10 20 -10 21
3 6 10 -13 16 -15 25 -6z m-164 -18 c3 -8 2 -12 -4 -9 -6 3 -10 10 -10 16 0
14 7 11 14 -7z m31 -84 c-4 -6 11 -10 37 -10 49 0 68 -13 68 -46 0 -13 5 -26
10 -29 6 -3 10 -12 10 -18 0 -7 -5 -4 -11 6 -6 9 -15 15 -20 12 -5 -4 -7 -9
-5 -13 2 -4 -18 -5 -45 -4 -44 4 -49 6 -49 28 0 13 -6 24 -12 25 -9 0 -9 2 -2
5 6 3 9 16 6 29 -2 15 0 25 7 25 7 0 9 -4 6 -10z m151 -76 c-4 -9 -9 -15 -11
-12 -3 3 -3 13 1 22 4 9 9 15 11 12 3 -3 3 -13 -1 -22z"/>
<path d="M1018 663 c-22 -5 -23 -19 -3 -27 8 -3 15 -11 15 -18 0 -9 -3 -9 -11
2 -9 12 -10 11 -4 -5 23 -65 28 -74 38 -68 5 3 7 1 4 -5 -8 -12 2 -44 12 -38
11 7 5 -49 -8 -73 -7 -12 -9 -25 -6 -30 3 -5 -1 -12 -7 -14 -10 -4 -9 -6 1 -6
8 -1 20 7 28 17 10 11 12 12 8 2 -4 -8 1 -6 9 5 9 11 14 25 12 32 -3 7 -1 13
3 13 12 0 32 60 24 73 -3 5 -1 7 4 4 6 -4 18 10 27 33 18 45 21 63 6 40 -7
-11 -8 -8 -6 13 1 15 6 30 11 35 4 4 5 2 1 -5 -3 -6 -2 -14 2 -17 5 -3 14 5
19 17 10 21 9 23 -16 19 -23 -3 -31 -13 -44 -50 -10 -26 -17 -55 -17 -65 0
-35 -24 -10 -43 43 -21 62 -34 78 -59 73z m95 -178 c-3 -9 -8 -14 -10 -11 -3
3 -2 9 2 15 9 16 15 13 8 -4z"/>
</g>
</svg>
